<svg width="80" height="80" viewBox="0 0 80 80" fill="none" xmlns="http://www.w3.org/2000/svg">
<path d="M40 80C45.4714 80 50.623 78.951 55.4555 76.8535C60.2875 74.782 64.532 71.904 68.188 68.2205C71.8695 64.537 74.7585 60.291 76.855 55.482C78.9515 50.6475 80 45.4804 80 39.9808C80 34.5068 78.9515 29.3653 76.855 24.5564C74.7585 19.7218 71.8695 15.4628 68.188 11.7794C64.532 8.0959 60.275 5.2182 55.417 3.1463C50.585 1.04876 45.4331 0 39.9617 0C34.4903 0 29.3384 1.04876 24.5062 3.1463C19.674 5.2182 15.4171 8.0959 11.7354 11.7794C8.07925 15.4628 5.20295 19.7218 3.10643 24.5564C1.03548 29.3653 0 34.5068 0 39.9808C0 45.4804 1.03548 50.6475 3.10643 55.482C5.20295 60.291 8.09205 64.537 11.7737 68.2205C15.4554 71.904 19.7123 74.782 24.5446 76.8535C29.3768 78.951 34.5286 80 40 80ZM35.743 59.012C34.9504 59.012 34.2346 58.8455 33.5954 58.513C32.9562 58.155 32.3554 57.618 31.7929 56.9015L22.5504 45.7746C22.1924 45.2885 21.9112 44.8154 21.7066 44.3549C21.5277 43.8689 21.4382 43.3701 21.4382 42.8585C21.4382 41.7842 21.8089 40.8761 22.5504 40.1343C23.2918 39.3669 24.1994 38.9832 25.2732 38.9832C25.9124 38.9832 26.4877 39.1239 26.9991 39.4053C27.5104 39.6611 28.0218 40.1087 28.5331 40.7482L35.628 49.65L51.0835 24.9401C52.004 23.482 53.1415 22.753 54.4965 22.753C55.5195 22.753 56.427 23.0856 57.2195 23.7506C58.0375 24.4157 58.447 25.2854 58.447 26.3597C58.447 26.8457 58.3445 27.3317 58.14 27.8177C57.961 28.3037 57.731 28.7642 57.4495 29.199L39.5398 56.9015C39.0796 57.5665 38.5171 58.091 37.8523 58.475C37.2131 58.833 36.51 59.012 35.743 59.012Z" fill="#3897F0"/>
</svg>
