<svg width="12" height="24" viewBox="0 0 12 24" fill="none" xmlns="http://www.w3.org/2000/svg">
<path d="M10.0499 23.6665C9.80096 23.6673 9.55494 23.6124 9.32997 23.5057C9.10501 23.3989 8.90681 23.2432 8.74995 23.0498L0.699948 13.0498C0.454811 12.7516 0.320801 12.3775 0.320801 11.9915C0.320801 11.6054 0.454811 11.2314 0.699948 10.9331L9.03328 0.933142C9.31618 0.592781 9.7227 0.37874 10.1634 0.338107C10.6041 0.297474 11.0429 0.433578 11.3833 0.716475C11.7236 0.999373 11.9377 1.40589 11.9783 1.8466C12.0189 2.28731 11.8828 2.72611 11.5999 3.06647L4.14995 11.9998L11.3499 20.9331C11.5538 21.1778 11.6832 21.4757 11.723 21.7916C11.7628 22.1075 11.7113 22.4282 11.5745 22.7158C11.4378 23.0033 11.2215 23.2457 10.9513 23.4142C10.6811 23.5826 10.3683 23.6702 10.0499 23.6665Z" fill="#231F20"/>
</svg>
