<svg width="12" height="24" viewBox="0 0 12 24" fill="none" xmlns="http://www.w3.org/2000/svg">
<path d="M1.94956 23.6665C2.19856 23.6673 2.44457 23.6124 2.66954 23.5057C2.8945 23.3989 3.0927 23.2432 3.24956 23.0498L11.2996 13.0498C11.5447 12.7516 11.6787 12.3775 11.6787 11.9915C11.6787 11.6054 11.5447 11.2314 11.2996 10.9331L2.96623 0.933142C2.68333 0.592781 2.27682 0.37874 1.8361 0.338107C1.39539 0.297474 0.956593 0.433578 0.616231 0.716475C0.27587 0.999373 0.0618305 1.40589 0.0211973 1.8466C-0.0194359 2.28731 0.116667 2.72611 0.399565 3.06647L7.84956 11.9998L0.649566 20.9331C0.445761 21.1778 0.316298 21.4757 0.276499 21.7916C0.2367 22.1075 0.288228 22.4282 0.424988 22.7158C0.561748 23.0033 0.778014 23.2457 1.0482 23.4142C1.31838 23.5826 1.63118 23.6702 1.94956 23.6665Z" fill="#231F20"/>
</svg>
