<svg width="40" height="40" viewBox="0 0 40 40" fill="none" xmlns="http://www.w3.org/2000/svg">
<path d="M20.0002 13.3332C20.3896 13.3324 20.767 13.4681 21.0669 13.7165L31.0669 22.0499C31.4072 22.3328 31.6213 22.7393 31.6619 23.18C31.7025 23.6207 31.5664 24.0595 31.2835 24.3999C31.0006 24.7402 30.5941 24.9543 30.1534 24.9949C29.7127 25.0355 29.2739 24.8994 28.9335 24.6165L20.0002 17.1499L11.0669 24.3499C10.8964 24.4883 10.7002 24.5917 10.4897 24.6541C10.2791 24.7165 10.0583 24.7366 9.83989 24.7134C9.62151 24.6902 9.40987 24.624 9.21714 24.5187C9.02441 24.4134 8.85439 24.2711 8.71685 24.0999C8.56422 23.9285 8.44862 23.7275 8.3773 23.5093C8.30598 23.2912 8.28048 23.0607 8.30238 22.8323C8.32429 22.6038 8.39313 22.3824 8.5046 22.1818C8.61607 21.9812 8.76777 21.8058 8.95019 21.6665L18.9502 13.6165C19.2587 13.4073 19.6284 13.3076 20.0002 13.3332Z" fill="#231F20"/>
</svg>
