<svg width="39" height="32" viewBox="0 0 39 32" fill="none" xmlns="http://www.w3.org/2000/svg">
<rect x="0.943359" width="37.6537" height="32" rx="16" fill="none"/>
<path d="M33.4355 25.72L28.1012 21.2C29.8222 19.3366 30.7561 17.0355 30.7526 14.6667C30.7526 12.557 30.0165 10.4947 28.6374 8.74059C27.2582 6.98647 25.298 5.61929 23.0045 4.81196C20.7111 4.00462 18.1875 3.79339 15.7528 4.20496C13.3181 4.61654 11.0816 5.63244 9.32632 7.1242C7.571 8.61596 6.37561 10.5166 5.89132 12.5857C5.40703 14.6548 5.65558 16.7996 6.60556 18.7486C7.55553 20.6977 9.16426 22.3636 11.2283 23.5357C13.2923 24.7078 15.719 25.3333 18.2014 25.3333C20.9888 25.3363 23.6964 24.5427 25.889 23.08L31.2076 27.6133C31.3535 27.7383 31.527 27.8375 31.7182 27.9052C31.9094 27.9729 32.1144 28.0077 32.3215 28.0077C32.5286 28.0077 32.7337 27.9729 32.9249 27.9052C33.1161 27.8375 33.2896 27.7383 33.4355 27.6133C33.5825 27.4894 33.6992 27.3419 33.7789 27.1794C33.8585 27.017 33.8995 26.8427 33.8995 26.6667C33.8995 26.4907 33.8585 26.3164 33.7789 26.1539C33.6992 25.9914 33.5825 25.844 33.4355 25.72ZM8.78796 14.6667C8.78796 13.0844 9.34005 11.5377 10.3744 10.2221C11.4088 8.90652 12.8789 7.88114 14.599 7.27564C16.3191 6.67013 18.2118 6.51171 20.0379 6.82039C21.8639 7.12907 23.5412 7.891 24.8577 9.00982C26.1742 10.1286 27.0707 11.5541 27.4339 13.106C27.7972 14.6578 27.6107 16.2663 26.8983 17.7281C26.1858 19.19 24.9792 20.4394 23.4312 21.3184C21.8832 22.1975 20.0632 22.6667 18.2014 22.6667C15.7048 22.6667 13.3105 21.8238 11.5451 20.3235C9.77973 18.8232 8.78796 16.7884 8.78796 14.6667Z" fill="#545F71"/>
</svg>
