<svg width="40" height="40" viewBox="0 0 40 40" fill="none" xmlns="http://www.w3.org/2000/svg">
<path d="M23.0499 31.6665C22.801 31.6673 22.5549 31.6124 22.33 31.5057C22.105 31.3989 21.9068 31.2432 21.7499 31.0498L13.6999 21.0498C13.4548 20.7516 13.3208 20.3775 13.3208 19.9915C13.3208 19.6054 13.4548 19.2314 13.6999 18.9331L22.0333 8.93314C22.3162 8.59278 22.7227 8.37874 23.1634 8.33811C23.6041 8.29747 24.0429 8.43358 24.3833 8.71648C24.7236 8.99937 24.9377 9.40589 24.9783 9.8466C25.0189 10.2873 24.8828 10.7261 24.5999 11.0665L17.1499 19.9998L24.3499 28.9331C24.5538 29.1778 24.6832 29.4757 24.723 29.7916C24.7628 30.1075 24.7113 30.4282 24.5745 30.7158C24.4378 31.0033 24.2215 31.2457 23.9513 31.4142C23.6811 31.5826 23.3683 31.6702 23.0499 31.6665Z" fill="#231F20"/>
</svg>
