<svg width="40" height="40" viewBox="0 0 40 40" fill="none" xmlns="http://www.w3.org/2000/svg">
<path d="M16.9498 31.6665C17.1988 31.6673 17.4448 31.6124 17.6698 31.5057C17.8947 31.3989 18.0929 31.2432 18.2498 31.0498L26.2998 21.0498C26.5449 20.7516 26.679 20.3775 26.679 19.9915C26.679 19.6054 26.5449 19.2314 26.2998 18.9331L17.9665 8.93314C17.6836 8.59278 17.2771 8.37874 16.8363 8.33811C16.3956 8.29747 15.9568 8.43358 15.6165 8.71648C15.2761 8.99937 15.0621 9.40589 15.0214 9.8466C14.9808 10.2873 15.1169 10.7261 15.3998 11.0665L22.8498 19.9998L15.6498 28.9331C15.446 29.1778 15.3165 29.4757 15.2767 29.7916C15.2369 30.1075 15.2885 30.4282 15.4252 30.7158C15.562 31.0033 15.7783 31.2457 16.0484 31.4142C16.3186 31.5826 16.6314 31.6702 16.9498 31.6665Z" fill="#231F20"/>
</svg>
