<svg width="21" height="20" viewBox="0 0 21 20" fill="none" xmlns="http://www.w3.org/2000/svg">
<path fill-rule="evenodd" clip-rule="evenodd" d="M9.4694 0H10.5923C15.8192 0 20.0565 4.22643 20.0565 9.44V10.56C20.0565 15.7736 15.8192 20 10.5923 20H9.4694C4.24242 20 0.00512695 15.7736 0.00512695 10.56V9.44C0.00512695 4.22643 4.24242 0 9.4694 0ZM10.5923 18.5C14.975 18.4673 18.5199 14.9315 18.5527 10.56V9.44C18.5199 5.06846 14.975 1.53267 10.5923 1.5H9.46939C5.08661 1.53267 1.54173 5.06846 1.50898 9.44V10.56C1.54173 14.9315 5.08661 18.4673 9.46939 18.5H10.5923Z" fill="#FF0000"/>
<path d="M14.0411 9.25H6.02055C5.60527 9.25 5.26862 9.58579 5.26862 10C5.26862 10.4142 5.60527 10.75 6.02055 10.75H14.0411C14.4564 10.75 14.793 10.4142 14.793 10C14.793 9.58579 14.4564 9.25 14.0411 9.25Z" fill="#FF0000"/>
</svg>
