<svg width="40" height="40" viewBox="0 0 40 40" fill="none" xmlns="http://www.w3.org/2000/svg">
<path d="M23.0499 31.6667C22.8009 31.6676 22.5548 31.6126 22.3299 31.5059C22.1049 31.3992 21.9067 31.2434 21.7499 31.0501L13.6999 21.0501C13.4547 20.7518 13.3207 20.3778 13.3207 19.9917C13.3207 19.6057 13.4547 19.2316 13.6999 18.9334L22.0332 8.93339C22.3161 8.59302 22.7226 8.37898 23.1633 8.33835C23.604 8.29772 24.0428 8.43382 24.3832 8.71672C24.7235 8.99962 24.9376 9.40614 24.9782 9.84685C25.0189 10.2876 24.8828 10.7264 24.5999 11.0667L17.1499 20.0001L24.3499 28.9334C24.5537 29.178 24.6831 29.4759 24.7229 29.7918C24.7627 30.1078 24.7112 30.4285 24.5744 30.716C24.4377 31.0036 24.2214 31.2459 23.9512 31.4144C23.681 31.5829 23.3682 31.6704 23.0499 31.6667Z" fill="white"/>
</svg>
